<svg xmlns="http://www.w3.org/2000/svg" xmlns:xlink="http://www.w3.org/1999/xlink" width="392.684" height="321.644" viewBox="0 0 392.684 321.644"><defs><linearGradient id="a" x1="0.454" y1="-0.235" x2="0.541" y2="2.097" gradientUnits="objectBoundingBox"><stop offset="0.01"/><stop offset="0.08" stop-opacity="0.69"/><stop offset="0.21" stop-opacity="0.322"/><stop offset="1" stop-opacity="0"/></linearGradient><linearGradient id="b" x1="-0.851" y1="1.087" x2="3.609" y2="-0.7" xlink:href="#a"/><linearGradient id="c" x1="35.755" y1="1.618" x2="35.851" y2="-1.045" xlink:href="#a"/><linearGradient id="d" x1="240.202" y1="3.959" x2="236.272" y2="3.398" xlink:href="#a"/><linearGradient id="e" x1="168.087" y1="0.89" x2="170.165" y2="-0.232" xlink:href="#a"/><linearGradient id="f" x1="170.399" y1="3.943" x2="172.412" y2="3.105" xlink:href="#a"/><linearGradient id="g" x1="-92.776" y1="0.959" x2="-90.017" y2="-0.375" xlink:href="#a"/><linearGradient id="h" x1="-70.933" y1="3.943" x2="-68.919" y2="3.105" xlink:href="#a"/><linearGradient id="i" x1="46.564" y1="1.121" x2="47.026" y2="5.012" xlink:href="#a"/><linearGradient id="j" x1="0.422" y1="-6.655" x2="0.655" y2="14.92" xlink:href="#a"/><linearGradient id="k" x1="0.422" y1="-6.666" x2="0.655" y2="14.941" xlink:href="#a"/><linearGradient id="l" x1="0.494" y1="-5.122" x2="0.508" y2="8.956" xlink:href="#a"/><linearGradient id="m" x1="0.422" y1="-6.667" x2="0.655" y2="14.94" xlink:href="#a"/><linearGradient id="n" x1="-0.984" y1="0.578" x2="3.092" y2="0.327" xlink:href="#a"/><linearGradient id="o" x1="0.498" y1="-1.576" x2="0.505" y2="4.4" xlink:href="#a"/><linearGradient id="p" x1="5.18" y1="0.964" x2="-7.333" y2="-0.258" xlink:href="#a"/></defs><g transform="translate(-7931 -5323)"><g transform="translate(7930.974 5322.952)"><path d="M67.4,303.46c2.14,13.17,15.22,74.41,63,87.44C166.52,400.76,268,367,325.8,384c116.34,34.2,137.65-57.62,131.15-82.42-4.53-17.29-10.12-34.63-10.27-52.68-.15-18.88,6.47-37.45,7.19-56.47,1.83-48.13-32-95.38-78.13-109.19-19.75-5.9-35.9-11.93-56.51-12.1-41.83-.36-141.1,0-190,71.13-8.74,12.71-21.43,22.22-31.18,34.18-13,16-21.66,35.33-26.89,55.32a174.61,174.61,0,0,0-3.76,71.69Z" transform="translate(-65.29 -71.05)" fill="#3ad7c0" opacity="0.18"/><path d="M248.94,248.09H172.75l13.48-38.02h51.34Z" fill="#3ad7c0"/><path d="M248.94,248.09H172.75l13.48-38.02h51.34Z" fill="url(#a)"/><rect width="224.79" height="152.29" rx="13.68" transform="translate(101.66 72.04)" fill="#3ad7c0"/><path d="M391.74,156.76V266.34H167V156.76a13.67,13.67,0,0,1,13.67-13.67h197.4a13.67,13.67,0,0,1,13.67,13.67Z" transform="translate(-65.29 -71.05)" fill="#473f47"/><path d="M388.36,159.37V262.68h-218V159.37a13.2,13.2,0,0,1,13.27-13.12H375.09a13.2,13.2,0,0,1,13.27,13.12Z" transform="translate(-65.29 -71.05)" fill="#fff"/><path d="M388.36,159.37V262.68h-218V159.37a13.2,13.2,0,0,1,13.27-13.12H375.09a13.2,13.2,0,0,1,13.27,13.12Z" transform="translate(-65.29 -71.05)" fill="#3ad7c0" opacity="0.18"/><rect width="87.85" height="62.06" transform="translate(118.22 47.74)" fill="#3ad7c0"/><path d="M353.72,154.16c-.13-1.87,0-3.79-.2-5.65a19.15,19.15,0,0,0-8-13.47,22.21,22.21,0,0,0-15.32-3.79c-8.75,1-16.1,7-20.31,14.57-4.79,8.61-.31,15.66,3.56,23.47,2.9,5.84,1.19,13.13-2.57,18.46-2.95,4.17-7.31,8.17-6.94,13.27.23,3.1,2.21,5.75,4.12,8.2,1.28,1.64,2.71,3.38,4.73,3.85a8.62,8.62,0,0,0,3.08,0,58,58,0,0,0,6.77-1.37c2.16-.58,4.38-1.3,6.6-1,3.76.48,6.54,3.65,8.71,6.74s4.31,6.53,7.76,8.07c2.62,1.18,5.62,1.07,8.48.83,8.35-.69,17.2-2.63,22.94-8.73a39.62,39.62,0,0,0,3.49-4.46,10.75,10.75,0,0,0,1.55-2.71c1-2.91-.6-6-2.4-8.55s-4-5-4.26-8.06c-.24-2.4.72-4.73,1-7.11.61-4.54-1.16-9.15-4-12.76a39.779,39.779,0,0,0-10.42-8.8c-3-1.88-6.2-3.83-7.6-7a11.55,11.55,0,0,1-.77-4Z" transform="translate(-65.29 -71.05)" fill="#fc682d"/><path d="M348.81,163.19c.66,2,1,4.15,2.15,5.95,1.4,2.28,3.78,3.74,6.14,5a11,11,0,0,1,3.4,2.37,7.37,7.37,0,0,1,1.39,2.95,12.08,12.08,0,0,1,.25,4.32,10.879,10.879,0,0,0-.23,3.67c.35,1.53,1.6,2.65,2.69,3.78a14.12,14.12,0,0,1,4.19,7.66c.4,2.94-.79,6.21-3.39,7.65a10.391,10.391,0,0,1-3,1,34.85,34.85,0,0,1-5.09.62,11.62,11.62,0,0,1-3.63-.3,13.91,13.91,0,0,1-4-2.23l-15.92-11.32a16.15,16.15,0,0,1-4.71-4.41,15.389,15.389,0,0,1-1.71-5.16c-.87-4.39-1.54-9.09.16-13.23,1.32-3.24,3.94-5.75,6.48-8.16l6.45-6.1c1.87-1.77,3.34-2.55,5-.38A22,22,0,0,1,348.81,163.19Z" transform="translate(-65.29 -71.05)" fill="url(#b)"/><path d="M359.9,221.12c5.29,5.93,7.49,13.23,11.5,20a6.07,6.07,0,0,0,2.09,2.39c1.47.8,3.3.24,4.78-.54,11.91-6.36,13-24.55,24.68-31.32,2.71-1.56,5.79-2.38,8.48-4,1-.6,2.08-1.67,1.68-2.77a2.68,2.68,0,0,0-1.78-1.34,23.27,23.27,0,0,0-9.58-1.19c-1.45.13-3.47,0-3.63-1.47a6.729,6.729,0,0,0,0-1.27c-.32-1.06-2.09-.67-2.53.35s-.11,2.18-.15,3.29a9.59,9.59,0,0,1-1.94,4.77,112.442,112.442,0,0,1-8.26,11.16c-8.44,10-10.57-5.95-17.24-9.28a5.38,5.38,0,0,0-2-.41q-8.91-.61-17.84-.36C350.27,210.82,358,219,359.9,221.12Z" transform="translate(-65.29 -71.05)" fill="#f4dbbd"/><path d="M342.88,184.2s17.28,7.79,18.3,9.83,0,60.24,0,60.24H300.26l3.5-61.33,17.82-7.3Z" transform="translate(-65.29 -71.05)" fill="#3ad7c0"/><path d="M300.25,254.28h60.93s1-58.2,0-60.26-18.3-9.82-18.3-9.82l-21.29,1.43-17.82,7.3-1.69,29.45Z" transform="translate(-65.29 -71.05)" fill="url(#c)"/><path d="M361.18,194l14.51,18.48c-2.92,8.63-14.51,19.58-14.51,19.58Z" transform="translate(-65.29 -71.05)" fill="#3ad7c0"/><path d="M295.89,139.74l9.07,11.15-9.07,10.15Z" fill="url(#d)"/><path d="M342.44,175.92c-.59,3.14.32,5.53.45,8.41.18,4.27-4.34,10.94-6.14,14.84-.58,1.26-1.27,2.63-2.54,3.2a5.79,5.79,0,0,1-2.81.29,8.39,8.39,0,0,1-4.06-.93c-1.64-1-2.35-3-2.92-4.86-.93-3-3.29-7.75-2.72-10.84.18-1,1.08-2,1.33-3.08a18.69,18.69,0,0,0,.23-4.23C323.19,171.2,342.44,175.92,342.44,175.92Z" transform="translate(-65.29 -71.05)" fill="#f4dbbd"/><path d="M342.44,175.92S340,189,332.23,188.24a9.85,9.85,0,0,1-9-7.61Z" transform="translate(-65.29 -71.05)" fill="#e0be99"/><path d="M343.12,173.66a19.24,19.24,0,0,1-2.42,5.91c-3.18,4.65-10.4,6.08-15.18,3a16.63,16.63,0,0,1-5.74-7.34,34.76,34.76,0,0,1-2.69-19.7,14.13,14.13,0,0,1,2.88-7.17c2.83-3.27,7.66-4.12,12-3.89,3.93.21,8,1.19,10.95,3.7a11.77,11.77,0,0,1,3.67,11.49C345.48,164.32,344.39,169,343.12,173.66Z" transform="translate(-65.29 -71.05)" fill="#f4dbbd"/><path d="M252,191.6a5.07,5.07,0,0,0-2.32-1.28,26,26,0,0,0-2.66-.2c-1.83-.21-3.75-1.18-5.4-.36a3.56,3.56,0,0,0-1.77,3.19,7.76,7.76,0,0,0,1.07,3.64c2.76,5.25,6.82,7,11.59,9.81,2.51,1.48,4.26,5,6,7.45l6.31,8.74c2.58,3.57,5.2,7.19,8.65,9.94a6.221,6.221,0,0,0,1.9,1.13,5.77,5.77,0,0,0,3.78-.38c5-1.93,9.45-5.59,13.77-8.75,2-1.48,4.07-3,6.08-4.49.87-.65,2.49-1.48,3.05-2.46a5.22,5.22,0,0,0,.53-2c.76-5.9-.29-11.91-.14-17.86-6.58,7.52-14.18,15.47-23,20.32a1.87,1.87,0,0,1-.88.31,2,2,0,0,1-.9-.3,60.8,60.8,0,0,1-18.92-15.72,56.228,56.228,0,0,1-5-8.44A8.89,8.89,0,0,0,252,191.6Z" transform="translate(-65.29 -71.05)" fill="#f4dbbd"/><path d="M346.55,161.31a2.22,2.22,0,0,1,2.55.33,2.171,2.171,0,0,1,.4.87,7.21,7.21,0,0,1-1.05,5.16,3.84,3.84,0,0,1-.91,1.16,4.44,4.44,0,0,1-2.56.68,1.55,1.55,0,0,1-.61,0,1.209,1.209,0,0,1-.42-.32,3.4,3.4,0,0,1-.71-2.59C343.43,164.54,344.61,162.16,346.55,161.31Z" transform="translate(-65.29 -71.05)" fill="#f4dbbd"/><path d="M316.43,169.12a2.2,2.2,0,0,0,2.55-.32,2.16,2.16,0,0,0,.4-.87,7.16,7.16,0,0,0-1.05-5.16,4,4,0,0,0-.91-1.17,4.4,4.4,0,0,0-2.56-.68,1.39,1.39,0,0,0-.61.06,1.1,1.1,0,0,0-.42.32,3.4,3.4,0,0,0-.71,2.59C313.31,165.9,314.5,168.28,316.43,169.12Z" transform="translate(-65.29 -71.05)" fill="#f4dbbd"/><path d="M303.76,192.94,289.43,211c2.91,8.63,12.62,19.58,12.62,19.58Z" transform="translate(-65.29 -71.05)" fill="#3ad7c0"/><path d="M348.14,165.87a4,4,0,0,1-1.19,1.62,1.41,1.41,0,0,1-1.67.09.51.51,0,0,1-.2-.26.76.76,0,0,1,.07-.51l.12-.32a.909.909,0,0,1,.13-.26c.22-.29.67-.24,1-.42s.46-.64.64-1a.85.85,0,0,1,.75-.52.72.72,0,0,1,.57.65,1.711,1.711,0,0,1-.22.93Z" transform="translate(-65.29 -71.05)" fill="#e0be99"/><path d="M314.44,165.23a3.94,3.94,0,0,0,1.19,1.62,1.43,1.43,0,0,0,1.68.1.54.54,0,0,0,.2-.27.8.8,0,0,0-.07-.5l-.12-.32a.789.789,0,0,0-.13-.26c-.22-.29-.67-.25-1-.43s-.46-.64-.64-1a.87.87,0,0,0-.75-.52.69.69,0,0,0-.57.64,1.68,1.68,0,0,0,.21.94Z" transform="translate(-65.29 -71.05)" fill="#e0be99"/><path d="M342.88,184.2l4.06,1.88-2,18.78L334.18,209S338.69,195.24,342.88,184.2Z" transform="translate(-65.29 -71.05)" fill="url(#e)"/><path d="M276.21,135.14l1.37,7.2-13.04,14.57L268.89,138Z" fill="url(#f)"/><path d="M321.44,185.75l-4.06,1.87-2.32,17.24L325.78,209S321.58,191.65,321.44,185.75Z" transform="translate(-65.29 -71.05)" fill="url(#g)"/><path d="M253.18,135.14l-1.38,7.2,13.04,14.57L260.49,138Z" fill="url(#h)"/><path d="M247.91,183l40.22-7.17,7.76-36.09v43.48Z" fill="url(#i)"/><path d="M328.66,147.78c.5,3,1,6.34,3.3,8.44a11.76,11.76,0,0,0,4.47,2.34,43,43,0,0,0,11.62,2.11A17.79,17.79,0,0,0,330.89,139C324,138.81,327.93,143.29,328.66,147.78Z" transform="translate(-65.29 -71.05)" fill="#fc682d"/><rect width="218.03" height="11.88" transform="translate(105.04 179.76)" fill="#fff"/><path d="M335.11,322.51a11.55,11.55,0,0,0,5.2,19.32v2.64h-139A13.78,13.78,0,0,1,188.22,335a13.63,13.63,0,0,1-.71-4.349,13.79,13.79,0,0,1,13.8-13.8h139v2.64A11.52,11.52,0,0,0,335.11,322.51Z" transform="translate(-65.29 -71.05)" fill="#3ad7c0"/><path d="M340.31,341.83v2.64h-139A13.78,13.78,0,0,1,188.22,335c5.28.931,38.71,6.261,57.32-4.349l87.17,4.65A11.53,11.53,0,0,0,340.31,341.83Z" transform="translate(-65.29 -71.05)" fill="url(#j)"/><path d="M335.11,322.51a11.55,11.55,0,0,0,5.2,19.32v.39H257.09a11.55,11.55,0,1,1,0-23.09h83.22v.38A11.52,11.52,0,0,0,335.11,322.51Z" transform="translate(-65.29 -71.05)" fill="#fff"/><path d="M419.66,351.31a11.55,11.55,0,0,0,5.2,19.32v2.64h-139a13.78,13.78,0,0,1-13.09-9.45,13.63,13.63,0,0,1-.71-4.35,13.79,13.79,0,0,1,13.8-13.8h139v2.64a11.52,11.52,0,0,0-5.2,3Z" transform="translate(-65.29 -71.05)" fill="#3ad7c0"/><path d="M424.86,370.63v2.64h-139a13.78,13.78,0,0,1-13.09-9.45c5.28.93,38.71,6.26,57.32-4.35l87.17,4.65a11.53,11.53,0,0,0,7.6,6.51Z" transform="translate(-65.29 -71.05)" fill="url(#k)"/><path d="M419.66,351.31a11.55,11.55,0,0,0,5.2,19.32V371H341.64a11.55,11.55,0,1,1,0-23.09h83.22v.38a11.52,11.52,0,0,0-5.2,3.02Z" transform="translate(-65.29 -71.05)" fill="#fff"/><path d="M179.62,118.65,162.95,78.77l18.78,40.3Z" fill="#fff"/><path d="M392,270.74a13.42,13.42,0,0,0-3.81,2.58,5.55,5.55,0,0,0-1.69,4.15c.15,1.87,1.49,3.41,2.9,4.63,1.61,1.42,3.57,2.9,3.7,5,1.15-.86,2.2-1.86,3.39-2.67,2.08-1.42,4.53-2.18,6.82-3.23s4.56-2.53,5.65-4.8a13.57,13.57,0,0,0,1-4.51,21.853,21.853,0,0,0,.13-5,7.25,7.25,0,0,0-2.08-4.44,13.39,13.39,0,0,0-6.19-2.62A6.63,6.63,0,0,0,396,264c-.47,1.25-.25,2.67-.71,3.92C394.71,269.38,393.3,270.08,392,270.74Z" transform="translate(-65.29 -71.05)" fill="#fc682d"/><path d="M340.17,346.35a4,4,0,0,0-1.33.2,1.2,1.2,0,0,0-.8,1,1.33,1.33,0,0,0,.69,1.06c.37.24.8.38,1.17.63a6.847,6.847,0,0,0,1,.69,3,3,0,0,0,1.93-.07,25.11,25.11,0,0,1,8.81-.55,3.521,3.521,0,0,0,.86,0,2.57,2.57,0,0,0,1.76-1.77,12.41,12.41,0,0,0,.51-5.56,1.37,1.37,0,0,0-.15-.6,1.24,1.24,0,0,0-.44-.34c-2.79-1.38-4.32,1.38-6.37,2.73A15.8,15.8,0,0,1,340.17,346.35Z" transform="translate(-65.29 -71.05)" fill="#ffbbab"/><path d="M407.64,305.31s.7,10.44-8.63,13.59-26.05.58-26.05.58-6.73,12.89-13.61,19l-4.4,4.35a4.39,4.39,0,0,1-4.85-2.1s13-25.91,14.75-27.85a15.59,15.59,0,0,1,7.62-5l18.62-5.86Z" transform="translate(-65.29 -71.05)" fill="#473f47"/><path d="M280.08,200.06l9.99,21.21,18.46-.13-.15-1.6-16.98-.19L282,199.28Z" fill="#473f47"/><path d="M394.23,257.4c-.34.58-1.05.92-1.28,1.55s.26,1.57.53,2.34c.39,1.07.27,2.27.64,3.35a1.22,1.22,0,0,0,.38.6,1.429,1.429,0,0,0,.57.23,8.62,8.62,0,0,0,2.43.14.75.75,0,0,1,.47.06.63.63,0,0,1,.21.41,12.92,12.92,0,0,1-.1,6.18c-.17.67-.36,1.48.13,2a1.35,1.35,0,0,0,.63.32c1.54.37,3-.77,4.06-2a18,18,0,0,0,2.38-3.5,3.341,3.341,0,0,0,.41-1.13,4,4,0,0,0-.21-1.52,25.467,25.467,0,0,1-.8-5.14c-.11-2.22.05-4.53-.81-6.59a3.41,3.41,0,0,0-1.34-1.73,4.35,4.35,0,0,0-2.4-.39c-1.61.06-3.39.28-4.49,1.47C395.33,254.39,394.66,256.68,394.23,257.4Z" transform="translate(-65.29 -71.05)" fill="#ffbbab"/><path d="M405.56,268.09s-6.65,3.44-8.66,6.14-5.29,4.69-4,9.8-.28,12.91-.28,12.91,2.89,9.09,10,11.39,5.15,1.57,5.15,1.57,3.77-16.85,5.25-21.54S412,267.34,405.56,268.09Z" transform="translate(-65.29 -71.05)" fill="#3ad7c0"/><path d="M396.37,253.82a4.6,4.6,0,0,0,1.47,2.85c.79.73,1.76,1.24,2.58,1.94a3.24,3.24,0,0,1,1.29,2.81,1.45,1.45,0,0,1,1.76.57,1.18,1.18,0,0,1-.19,1.22,1.45,1.45,0,0,1-1.16.48,4.6,4.6,0,0,1,2.07,1.68c.57.84.85,1.84,1.37,2.72a8.721,8.721,0,0,0,2.37,2.24,3.18,3.18,0,0,1,1,1.09,17.69,17.69,0,0,0,.69,2,29,29,0,0,0,1.9,2.4,8.72,8.72,0,0,1,1.51,4.52,7.672,7.672,0,0,1,0-1.44q.25-.42.48-.87a8,8,0,0,0,.59-1.64,16.559,16.559,0,0,0,.11-3.92c0-2.8,2.64-8.07.52-10.47a20.709,20.709,0,0,0-2.69-1.91c-1.87-1.55-2.13-4.28-3.31-6.4a8.08,8.08,0,0,0-4.91-3.84C401.06,249.06,396,249.93,396.37,253.82Z" transform="translate(-65.29 -71.05)" fill="#fc682d"/><path d="M403,276.85s-4.2,11.36-5,12.19,8.09,5.85,8.09,5.85,5.81-11.05,5.54-15.83S406.27,272.34,403,276.85Z" transform="translate(-65.29 -71.05)" fill="#3ad7c0"/><path d="M406.05,293.35s-.31,3.66-4.8,3.59l-19.95-.28c-1.36-.7-3.22-.81-4.23-2-.49-.54-.74-1.26-1.2-1.82a4.1,4.1,0,0,0-2.43-1.3,11.92,11.92,0,0,0-2.8-.07,1.16,1.16,0,0,1,0-1.52,2.76,2.76,0,0,1,1.45-.79,8.94,8.94,0,0,1,6.76,1,8,8,0,0,0,1.91,1,5.15,5.15,0,0,0,1.52.08c5.75-.27,11.43-1.49,17.18-1.75a9.92,9.92,0,0,1,4,.42,4.7,4.7,0,0,1,2.59,3.44Z" transform="translate(-65.29 -71.05)" fill="#ffbbab"/><rect width="2.83" height="51.78" transform="translate(273.78 223.52)" fill="#fff"/><rect width="2.83" height="51.78" transform="translate(305.7 223.52)" fill="#fff"/><rect width="39.63" height="4.5" transform="translate(270.46 221.27)" fill="#3ad7c0"/><rect width="39.63" height="4.5" transform="translate(270.46 221.27)" fill="url(#l)"/><rect width="27.99" height="6.69" rx="1.1" transform="translate(316.26 247.23)" fill="#473f47"/><path d="M321.75,253.92h-4.73l-2.36,21.89h4.73Z" fill="#473f47"/><path d="M345.81,275.81l-3.13-21.89h-4.73l3.93,21.89Z" fill="#473f47"/><path d="M352.78,210.52h-4.24l-9.58,36.88h4.24Z" fill="#473f47"/><rect width="27.99" height="6.69" rx="1.1" transform="translate(131.17 253.92) rotate(180)" fill="#473f47"/><path d="M125.68,253.92h4.73l2.36,21.89h-4.73Z" fill="#473f47"/><path d="M101.62,275.81l3.13-21.89h4.73l-3.93,21.89Z" fill="#473f47"/><path d="M94.65,210.52h4.24l9.58,36.88h-4.24Z" fill="#473f47"/><path d="M287.72,351.32a11.55,11.55,0,0,0,5.2,19.32v2.64h-139a13.78,13.78,0,0,1-13.09-9.45,13.63,13.63,0,0,1-.71-4.35,13.79,13.79,0,0,1,13.8-13.8h139v2.64a11.52,11.52,0,0,0-5.2,3Z" transform="translate(-65.29 -71.05)" fill="#3ad7c0"/><path d="M292.92,370.64v2.64h-139a13.78,13.78,0,0,1-13.09-9.45c5.28.93,38.71,6.26,57.32-4.35l87.17,4.65a11.53,11.53,0,0,0,7.6,6.51Z" transform="translate(-65.29 -71.05)" fill="url(#m)"/><path d="M287.72,351.32a11.55,11.55,0,0,0,5.2,19.32V371H209.7a11.55,11.55,0,1,1,0-23.09h83.22v.38a11.52,11.52,0,0,0-5.2,3.03Z" transform="translate(-65.29 -71.05)" fill="#fff"/><path d="M118.22,181.82l9.26,3.88-9.26,3.63Z" fill="#3ad7c0"/><rect width="184.13" height="2.47" transform="translate(131.23 184.46)" fill="#3ad7c0"/><path d="M171.7,305.59s-.7,10.44,8.63,13.59c6.66,2.25,14.3,1.76,21.2,1.15,1.11-.1,3.1-.66,4.08.08,1.38,1,.69,3.79.65,5.3-.09,3.28-.17,6.55-.26,9.83,0,1.51,0,3.06-.12,4.56s-.49,3.26-.6,4.92a.5.5,0,0,0,.09.4.54.54,0,0,0,.41.11L218,345a.52.52,0,0,0,.37-.1c.18-.17.06-.47-.08-.67a9.45,9.45,0,0,0-5-3.33,4.44,4.44,0,0,1-1.32-.57c-1.27-1-.22-3.15.07-4.36l1.26-5.26,2.48-10.34c.74-3.06.92-5.39-1.44-7.52a19.92,19.92,0,0,0-7.52-4.68l-18.61-5.86Z" transform="translate(-65.29 -71.05)" fill="#473f47"/><path d="M179.94,200.06l-9.99,21.21-18.46-.13.15-1.6,16.97-.19,9.4-20.07Z" fill="#473f47"/><path d="M196.36,257.4c.35.58,1.06.92,1.29,1.55s-.26,1.57-.54,2.34c-.38,1.07-.26,2.27-.63,3.35a1.22,1.22,0,0,1-.38.6,1.491,1.491,0,0,1-.57.23,8.621,8.621,0,0,1-2.43.14.75.75,0,0,0-.47.06.63.63,0,0,0-.21.41,12.92,12.92,0,0,0,.09,6.18c.18.67.37,1.48-.12,2a1.35,1.35,0,0,1-.63.32c-1.54.37-3-.77-4.06-2a18,18,0,0,1-2.38-3.5,3.34,3.34,0,0,1-.41-1.13,4,4,0,0,1,.21-1.52,25.46,25.46,0,0,0,.79-5.14c.12-2.22,0-4.53.81-6.59a3.43,3.43,0,0,1,1.35-1.73,4.32,4.32,0,0,1,2.39-.39c1.62.06,3.39.28,4.49,1.47C195.27,254.39,195.94,256.68,196.36,257.4Z" transform="translate(-65.29 -71.05)" fill="#ffbbab"/><path d="M185,268.13h.14c2.94.73,7.22,3.41,8.18,6.39,1.21,3.74,2,8.77,1.13,12.64-.59,2.63-2,5-2.79,7.58-.67,2.13-.95,4.39-1.83,6.44A12,12,0,0,1,177,308a8.44,8.44,0,0,1-3.77-1.66,8.88,8.88,0,0,1-2.79-7.35,26.48,26.48,0,0,1,2.11-7.86l4.58-11.95C178.24,276.32,180.93,267.32,185,268.13Z" transform="translate(-65.29 -71.05)" fill="#3ad7c0"/><path d="M182.63,297.52a3.8,3.8,0,0,1,.5,1.4A3.481,3.481,0,0,1,183,300a21.57,21.57,0,0,0-.59,5.94,1.39,1.39,0,0,0,.31,1,1.5,1.5,0,0,0,.89.28,6.62,6.62,0,0,0,3.4-.34,6,6,0,0,0,2.49-3.15,61.439,61.439,0,0,0,3.33-11.23,4.72,4.72,0,0,0,.18-1.9,3.73,3.73,0,0,0-1.72-2.28c-.8-.55-1.71-.95-2.48-1.55-1.52-1.16-2.64-3.27-4.71-3.54a3.08,3.08,0,0,0-3.2,2.28C179.54,289.1,181,294.23,182.63,297.52Z" transform="translate(-65.29 -71.05)" fill="url(#n)"/><path d="M187.61,276.85s4.2,11.36,5,12.19-8.08,5.85-8.08,5.85-5.82-11.05-5.54-15.83S184.33,272.34,187.61,276.85Z" transform="translate(-65.29 -71.05)" fill="#3ad7c0"/><path d="M184.55,293.35s.31,3.66,4.79,3.59l20-.28c1.35-.7,3.21-.81,4.23-2,.48-.54.73-1.26,1.2-1.82a4.1,4.1,0,0,1,2.43-1.3,11.917,11.917,0,0,1,2.8-.07,1.17,1.17,0,0,0,0-1.52,2.8,2.8,0,0,0-1.45-.79,8.94,8.94,0,0,0-6.76,1,8,8,0,0,1-1.91,1,5.15,5.15,0,0,1-1.52.08c-5.75-.27-11.43-1.49-17.18-1.75a10,10,0,0,0-4,.42,4.68,4.68,0,0,0-2.63,3.44Z" transform="translate(-65.29 -71.05)" fill="#ffbbab"/><rect width="2.83" height="51.78" transform="translate(145.64 223.52)" fill="#fff"/><rect width="2.83" height="51.78" transform="translate(177.57 223.52)" fill="#fff"/><rect width="39.63" height="4.5" transform="translate(142.32 221.27)" fill="#3ad7c0"/><rect width="39.63" height="4.5" transform="translate(142.32 221.27)" fill="url(#o)"/><path d="M195,248.32a5.63,5.63,0,0,0-4.39-2.55,4.21,4.21,0,0,0-3.33.94c-.36.36-.63.81-1,1.16-1.07,1-2.72.88-4,1.49a5.2,5.2,0,0,0-2.49,2.84,12.48,12.48,0,0,0-.72,3.79,10.26,10.26,0,0,0,.19,3.54,5.8,5.8,0,0,0,3.52,3.77,2.45,2.45,0,0,1,1.07.56c.24.27.32.66.55.94.57.7,1.71.44,2.42-.11a9.711,9.711,0,0,1,2.09-1.67l-2-2.71a1.49,1.49,0,0,1-.41-1,1,1,0,0,1,1-.73,2.08,2.08,0,0,1,1.21.53c.29.24.73.51,1,.23a.52.52,0,0,0,.14-.32c.22-1.34-1-2.67-.64-4a.58.58,0,0,1,.19-.31.66.66,0,0,1,.46-.06,8.871,8.871,0,0,0,2.41.06C194.8,254.24,196.26,250.49,195,248.32Z" transform="translate(-65.29 -71.05)" fill="#473f47"/><path d="M191.38,276.54c0,.49,0,1.11-.51,1.23a1,1,0,0,1-.59-.08,9.161,9.161,0,0,1-2.16-1.1,65.28,65.28,0,0,0,1.69,12.28,1.63,1.63,0,0,0,.26.64,1.45,1.45,0,0,0,1.09.4,7.54,7.54,0,0,0,2.9-.42c-2.48-4.12-2.59-9.35-1.19-13.94a3.44,3.44,0,0,0,.22-2.11,4,4,0,0,0-2.62-1.95C190.17,273,191.26,275,191.38,276.54Z" transform="translate(-65.29 -71.05)" fill="url(#p)"/></g><g transform="translate(7959.37 6831.005)"><path d="M2132.61-1453.872c-.379.125-1.728.576-3,1l-3.264,1.095c-.526.176-.991.338-1.03.359a.335.335,0,0,0-.134.516.481.481,0,0,0,.135.094c.048.023.473.173.942.332l.857.294a1.127,1.127,0,0,1-.091.151,3.514,3.514,0,0,0-.448,1.066,2.633,2.633,0,0,0-.085.475.123.123,0,0,0,.063-.007.945.945,0,0,1,.839.21l.09.084.009-.041c0-.022.035-.2.067-.394a2.177,2.177,0,0,1,.237-.885,1.528,1.528,0,0,1,.361-.369,15.32,15.32,0,0,1,1.54-.771c.672-.3,1.5-.62,2.41-.939.514-.181,1.273-.438,1.33-.451.15-.034.273.054.338.24a.274.274,0,0,1-.009.256.432.432,0,0,1-.21.194c-.035.018-.422.163-.86.323-1.339.489-1.668.617-3.517,1.364-.143.057-.166.072-.166.1s-.176-.024,1.639.577c.776.257,1.617.538,1.867.623s.525.17.61.187a1.957,1.957,0,0,0,.7,0c.087-.018.56-.171,1.146-.369.55-.188,2.246-.755,3.77-1.264s2.8-.935,2.829-.948a.465.465,0,0,0,.234-.2c.088-.175.01-.342-.213-.46-.1-.054-2.056-.71-6.149-2.068l-1.778-.589-.184-.006-.184-.006Z" transform="translate(-1997.316 0)" fill="#5a0c9d"/><path d="M1032.131-1277.832c-.037,0-.281.015-.544.026a60.155,60.155,0,0,0-6.019.707,34.149,34.149,0,0,0-8.811,2.493l-.257.128h.353a8.887,8.887,0,0,1,2.174.267l.232.059.3-.11a56.438,56.438,0,0,1,11.429-2.5c.582-.073,1.678-.2,1.739-.2a1.062,1.062,0,0,0-.212-.087c-.313-.113-.387-.16-.438-.284a.253.253,0,0,1,0-.2.492.492,0,0,1,.342-.269.3.3,0,0,0,.076-.032A3.208,3.208,0,0,0,1032.131-1277.832Z" transform="translate(-905 -173.669)" fill="#302d33"/><path d="M3287.965-1258.971a.142.142,0,0,1-.016.244l-.048.034.063.007c.035,0,.317.022.629.038a137.453,137.453,0,0,1,19.02,1.961l.469.091c.028.006.049.006.044,0s-1.556-.318-2.388-.464c-3.492-.617-7.447-1.1-12.647-1.537-1.5-.126-5.018-.4-5.116-.4h-.047Z" transform="translate(-3143.017 -192.233)" fill="#302d33"/><path d="M98-1124.261v5.739h1.573v-3.981l.107-.072c.219-.148,1.254-.736,1.943-1.1.4-.212,1.433-.732,1.859-.932a33.832,33.832,0,0,1,3.91-1.558,16.781,16.781,0,0,1,3.733-.908c.231-.022,1.243-.022,1.506,0a3.418,3.418,0,0,1,1.3.339,3.77,3.77,0,0,1,1.368,1.152,3.525,3.525,0,0,1,.714,2.38,3.533,3.533,0,0,1-.788,2.053,4.338,4.338,0,0,1-.929.842,3.7,3.7,0,0,1-3.688.141,3.551,3.551,0,0,1-.529-.351,6.135,6.135,0,0,1-.66-.666,3.506,3.506,0,0,1-.719-1.686,5.65,5.65,0,0,1,0-1.092,3.491,3.491,0,0,1,1.659-2.459,1.806,1.806,0,0,0,.212-.178c-.025-.026-1.471.356-2.324.614a.2.2,0,0,0-.091.084c-.025.038-.107.159-.181.267a4.417,4.417,0,0,0-.417,3.793,4.753,4.753,0,0,0,1.21,1.967,4.777,4.777,0,0,0,2.919,1.451,7.224,7.224,0,0,0,1.058.022,4.727,4.727,0,0,0,1.83-.5,5.254,5.254,0,0,0,1.78-1.476,4.734,4.734,0,0,0,.979-2.365,8.129,8.129,0,0,0,0-1.337,4.819,4.819,0,0,0-1.1-2.513,4.838,4.838,0,0,0-1.531-1.274,6.216,6.216,0,0,0-3.317-.579,4.261,4.261,0,0,0-.835.068,31.914,31.914,0,0,0-8.685,2.888c-.753.376-1.486.783-2.056,1.142-.109.069-.206.128-.218.132s-.021-.409-.021-2.89v-2.9H98Z" transform="translate(0 -319.337)" fill="#302d33"/><path d="M508-1128.4c0,1.277,0,1.6.019,1.6.2-.088.509-.212.8-.319.2-.073.453-.167.56-.209l.194-.075v-2.6H508Z" transform="translate(-403.974 -319.337)" fill="#302d33"/><path d="M4665.49-1094.793a.079.079,0,0,0,.037,0c.009,0,0-.007-.019-.007S4665.48-1094.8,4665.49-1094.793Z" transform="translate(-4500.356 -354.019)" fill="#302d33"/><path d="M4671.173-1093.781a.633.633,0,0,0,.1.019c.017,0,0-.009-.044-.019a.615.615,0,0,0-.1-.019C4671.112-1093.8,4671.133-1093.791,4671.173-1093.781Z" transform="translate(-4505.911 -355.004)" fill="#302d33"/><path d="M4684.49-1090.793a.075.075,0,0,0,.036,0c.009,0,0-.007-.019-.007S4684.479-1090.8,4684.49-1090.793Z" transform="translate(-4519.076 -357.96)" fill="#302d33"/><path d="M4689.49-1089.793a.079.079,0,0,0,.037,0c.009,0,0-.007-.02-.007S4689.48-1089.8,4689.49-1089.793Z" transform="translate(-4524.003 -358.946)" fill="#302d33"/><path d="M4694.355-1088.911a.03.03,0,0,0,.028,0c.006,0,0-.009-.019-.007S4694.343-1088.915,4694.355-1088.911Z" transform="translate(-4528.794 -359.813)" fill="#302d33"/><path d="M4698.49-1087.793a.079.079,0,0,0,.037,0c.009,0,0-.007-.019-.007S4698.48-1087.8,4698.49-1087.793Z" transform="translate(-4532.871 -360.916)" fill="#302d33"/><path d="M4703.354-1086.911a.031.031,0,0,0,.028,0c.006,0,0-.009-.02-.007S4703.343-1086.915,4703.354-1086.911Z" transform="translate(-4537.661 -361.784)" fill="#302d33"/><path d="M4708.355-1085.91a.03.03,0,0,0,.028,0c.006,0,0-.009-.02-.007S4708.343-1085.915,4708.355-1085.91Z" transform="translate(-4542.588 -362.769)" fill="#302d33"/><path d="M4713.354-1084.911a.029.029,0,0,0,.028,0c.006,0,0-.009-.019-.007S4713.343-1084.915,4713.354-1084.911Z" transform="translate(-4547.514 -363.754)" fill="#302d33"/><path d="M4717.354-1083.911a.03.03,0,0,0,.028,0c.006,0,0-.009-.019-.007S4717.343-1083.915,4717.354-1083.911Z" transform="translate(-4551.456 -364.74)" fill="#302d33"/><path d="M4722.355-1082.911a.03.03,0,0,0,.028,0c.006,0,0-.009-.02-.007S4722.343-1082.915,4722.355-1082.911Z" transform="translate(-4556.383 -365.725)" fill="#302d33"/><path d="M4726.355-1081.911a.03.03,0,0,0,.028,0c.006,0,0-.009-.019-.007S4726.343-1081.915,4726.355-1081.911Z" transform="translate(-4560.324 -366.71)" fill="#302d33"/><path d="M4735.355-1079.911a.029.029,0,0,0,.028,0c.006,0,0-.009-.019-.007S4735.343-1079.915,4735.355-1079.911Z" transform="translate(-4569.191 -368.681)" fill="#302d33"/><path d="M4744.355-1077.91a.029.029,0,0,0,.028,0c.006,0,0-.009-.019-.007S4744.343-1077.915,4744.355-1077.91Z" transform="translate(-4578.059 -370.652)" fill="#302d33"/><path d="M2172.966-1024.738a.9.9,0,0,0-.767.955.9.9,0,0,0,.61.811,1.079,1.079,0,0,0,.517.026.934.934,0,0,0,.607-.472.792.792,0,0,0,.09-.4.876.876,0,0,0-.616-.882A1.457,1.457,0,0,0,2172.966-1024.738Z" transform="translate(-2043.713 -423.046)" fill="#302d33"/><path d="M2959.575-1012.814a4.757,4.757,0,0,0-2.772,1.014,5.344,5.344,0,0,0-.675.675,5.121,5.121,0,0,0-.726,1.289,5.888,5.888,0,0,0-.235,3.017,4.555,4.555,0,0,0,4.2,3.821,8.876,8.876,0,0,0,1.046,0,5.331,5.331,0,0,0,1.263-.27,5.97,5.97,0,0,0,.977-.491,4.4,4.4,0,0,0,1.614-1.928,5.293,5.293,0,0,0,.439-2.043,5.339,5.339,0,0,0-.508-2.521,4.3,4.3,0,0,0-.922-1.286,4.613,4.613,0,0,0-2.644-1.242c-.165-.021-.694-.053-.794-.048C2959.816-1012.827,2959.7-1012.821,2959.575-1012.814Zm.742,1.367a3.063,3.063,0,0,1,1.656.679,3.641,3.641,0,0,1,1.136,2.881,3.915,3.915,0,0,1-.742,2.457,3.322,3.322,0,0,1-.521.506,3.092,3.092,0,0,1-1.539.575,5.439,5.439,0,0,1-1.041-.028,2.944,2.944,0,0,1-1.6-.78,3.561,3.561,0,0,1-.992-2.475,4.76,4.76,0,0,1,.228-1.775,4.068,4.068,0,0,1,.353-.722A3.1,3.1,0,0,1,2960.318-1011.447Z" transform="translate(-2815.08 -434.787)" fill="#302d33"/><path d="M4422.416-1012.457a3.243,3.243,0,0,0-1.645.531,2.547,2.547,0,0,0-1.029,1.343,2.461,2.461,0,0,0-.134.854,2.52,2.52,0,0,0,.259,1.214,2.158,2.158,0,0,0,.777.858,7.118,7.118,0,0,0,1.862.739,3.732,3.732,0,0,1,1.054.439,1.629,1.629,0,0,1,.4.392,1.489,1.489,0,0,1,.006,1.352,1.588,1.588,0,0,1-1.42.816,2.714,2.714,0,0,1-1.042-.119,4.015,4.015,0,0,1-1.093-.61c-.194-.143-.265-.173-.4-.173a.368.368,0,0,0-.3.119c-.03.031-.158.228-.287.438l-.232.382.141.14a4.332,4.332,0,0,0,2.458,1.105,6.718,6.718,0,0,0,1.087-.007,3.04,3.04,0,0,0,2.25-1.362,3.185,3.185,0,0,0,.44-1.311,4.37,4.37,0,0,0-.029-.942,2.091,2.091,0,0,0-.549-1.049,4.918,4.918,0,0,0-2.215-1.1,6.235,6.235,0,0,1-.906-.344,1.816,1.816,0,0,1-.665-.544,1.2,1.2,0,0,1-.018-1.111,1.394,1.394,0,0,1,1.01-.719,2.853,2.853,0,0,1,1,0,3.346,3.346,0,0,1,1.1.5.761.761,0,0,0,.357.156.364.364,0,0,0,.251-.1,1.682,1.682,0,0,0,.281-.472,1.7,1.7,0,0,0,.2-.431,2.8,2.8,0,0,0-.434-.353,3.79,3.79,0,0,0-1.334-.548A5.108,5.108,0,0,0,4422.416-1012.457Z" transform="translate(-4257.69 -435.145)" fill="#302d33"/><path d="M1549-1000.179v4.821h1.573v-3.895H1551c.681,0,.8.022.96.175.066.062.381.506,1.248,1.758.636.922,1.177,1.7,1.2,1.731a.649.649,0,0,0,.287.191,3.229,3.229,0,0,0,.879.037,3.528,3.528,0,0,0,.77-.015c-.007-.01-.6-.849-1.32-1.864s-1.332-1.878-1.362-1.921a2.028,2.028,0,0,0-.335-.322.329.329,0,0,1-.056-.043l.188-.066a2.758,2.758,0,0,0,2-2.322,4.925,4.925,0,0,0,0-.75,2.554,2.554,0,0,0-.391-1.111,2.8,2.8,0,0,0-.588-.589,4.124,4.124,0,0,0-2.063-.622c-.116-.009-.867-.015-1.8-.015H1549Zm3.4-3.567a1.667,1.667,0,0,1,1.387.841,1.916,1.916,0,0,1,.068,1.337,1.808,1.808,0,0,1-1.7,1.167c-.09.009-.479.016-.872.016h-.71v-3.4l.835.007A9.476,9.476,0,0,1,1552.4-1003.746Z" transform="translate(-1429.674 -442.499)" fill="#302d33"/><path d="M2379.1-1004.368v.632l2.521,0,2.521,0-2.6,3.651c-1.427,2.009-2.61,3.68-2.631,3.713-.089.154-.1.2-.106.62l-.006.387h7.293v-1.264h-2.61c-2.4,0-2.61,0-2.6-.023s1.162-1.649,2.573-3.636,2.584-3.643,2.607-3.683a1.236,1.236,0,0,0,.085-.19,1.253,1.253,0,0,0,.046-.482l.006-.363h-7.1Z" transform="translate(-2247.278 -442.499)" fill="#302d33"/><path d="M3750-1000.278v4.821h1.382v-3.308c0-2.224-.006-3.377-.016-3.522a2.062,2.062,0,0,1-.01-.217s1.206,1.536,2.672,3.42,2.692,3.448,2.726,3.476a.591.591,0,0,0,.3.135c.053.009.282.016.512.016h.414v-9.641h-1.367v3.264c0,2.208.006,3.345.016,3.514.009.137.013.251.01.254s-1.192-1.521-2.642-3.385-2.671-3.426-2.709-3.473a.456.456,0,0,0-.154-.126l-.084-.041-.524,0-.526,0Z" transform="translate(-3598.325 -442.401)" fill="#302d33"/><path d="M2031.868-859.99c0,.107-.035.625-.06.869a5.793,5.793,0,0,1-1.506,3.867,3.652,3.652,0,0,1-.819.616c-.056.029-.1.059-.093.069s1.429,2.03,1.458,2.061.041.007.166-.063a3.468,3.468,0,0,0,1.468-1.939,10.223,10.223,0,0,0,.459-3.148c0-.431-.078-2.34-.1-2.357s-.025,0-.047.009l-.131.054a.873.873,0,0,1-.713-.019C2031.882-860.006,2031.868-860.009,2031.868-859.99Z" transform="translate(-1903.003 -585.351)" fill="#5a0c9d"/><path d="M509.1-799.719c-.442.184-.948.4-1.046.451l-.056.028v5.967h1.573v-3.314c0-2.643,0-3.314-.018-3.313S509.34-799.819,509.1-799.719Z" transform="translate(-403.974 -644.585)" fill="#302d33"/></g></g></svg>