<svg xmlns="http://www.w3.org/2000/svg" xmlns:xlink="http://www.w3.org/1999/xlink" width="482.365" height="395.101" viewBox="0 0 482.365 395.101"><defs><linearGradient id="a" x1="0.454" y1="-0.235" x2="0.541" y2="2.097" gradientUnits="objectBoundingBox"><stop offset="0.01"/><stop offset="0.08" stop-opacity="0.69"/><stop offset="0.21" stop-opacity="0.322"/><stop offset="1" stop-opacity="0"/></linearGradient><linearGradient id="b" x1="-0.851" y1="1.087" x2="3.609" y2="-0.7" xlink:href="#a"/><linearGradient id="c" x1="35.755" y1="1.618" x2="35.851" y2="-1.045" xlink:href="#a"/><linearGradient id="d" x1="240.202" y1="3.959" x2="236.272" y2="3.398" xlink:href="#a"/><linearGradient id="e" x1="168.087" y1="0.89" x2="170.165" y2="-0.232" xlink:href="#a"/><linearGradient id="f" x1="170.399" y1="3.943" x2="172.412" y2="3.105" xlink:href="#a"/><linearGradient id="g" x1="-92.776" y1="0.959" x2="-90.017" y2="-0.375" xlink:href="#a"/><linearGradient id="h" x1="-70.933" y1="3.943" x2="-68.919" y2="3.105" xlink:href="#a"/><linearGradient id="i" x1="46.564" y1="1.121" x2="47.026" y2="5.012" xlink:href="#a"/><linearGradient id="j" x1="0.422" y1="-6.655" x2="0.655" y2="14.92" xlink:href="#a"/><linearGradient id="k" x1="0.422" y1="-6.666" x2="0.655" y2="14.941" xlink:href="#a"/><linearGradient id="l" x1="0.494" y1="-5.122" x2="0.508" y2="8.956" xlink:href="#a"/><linearGradient id="m" x1="0.422" y1="-6.667" x2="0.655" y2="14.94" xlink:href="#a"/><linearGradient id="n" x1="-0.984" y1="0.578" x2="3.092" y2="0.327" xlink:href="#a"/><linearGradient id="o" x1="0.498" y1="-1.576" x2="0.505" y2="4.4" xlink:href="#a"/><linearGradient id="p" x1="5.18" y1="0.964" x2="-7.333" y2="-0.258" xlink:href="#a"/></defs><g transform="translate(-0.026 -0.048)"><path d="M67.876,356.527c2.629,16.178,18.7,91.4,77.388,107.41,44.369,12.112,169.025-29.358,240.026-8.476,142.91,42.011,169.087-70.779,161.1-101.243-5.565-21.239-12.431-42.539-12.615-64.711-.184-23.192,7.948-46,8.832-69.367,2.248-59.122-39.308-117.163-95.973-134.127-24.261-7.247-44.1-14.655-69.416-14.863-51.383-.442-173.325,0-233.392,87.375-10.736,15.613-26.324,27.295-38.3,41.986-15.969,19.654-26.607,43.4-33.031,67.954a214.488,214.488,0,0,0-4.619,88.063Z" transform="translate(-65.29 -71.05)" fill="#5a0c9d" opacity="0.18"/><path d="M266.34,256.773H172.75l16.559-46.7h63.065Z" transform="translate(39.447 47.965)" fill="#5a0c9d"/><path d="M266.34,256.773H172.75l16.559-46.7h63.065Z" transform="translate(39.447 47.965)" fill="url(#a)"/><rect width="276.128" height="187.07" rx="13.68" transform="translate(124.871 88.482)" fill="#5a0c9d"/><path d="M443.066,159.882V294.488H167V159.882a16.792,16.792,0,0,1,16.792-16.792H426.274a16.792,16.792,0,0,1,16.792,16.792Z" transform="translate(-42.067 -54.608)" fill="#473f47"/><path d="M438.147,162.366v126.9H170.36v-126.9a16.215,16.215,0,0,1,16.3-16.116H421.847a16.215,16.215,0,0,1,16.3,16.116Z" transform="translate(-41.3 -53.887)" fill="#fff"/><path d="M438.147,162.366v126.9H170.36v-126.9a16.215,16.215,0,0,1,16.3-16.116H421.847a16.215,16.215,0,0,1,16.3,16.116Z" transform="translate(-41.3 -53.887)" fill="#5a0c9d" opacity="0.18"/><rect width="107.913" height="76.233" transform="translate(145.213 58.632)" fill="#5a0c9d"/><path d="M365.094,159.429c-.16-2.3,0-4.656-.246-6.94a23.524,23.524,0,0,0-9.827-16.546,27.282,27.282,0,0,0-18.819-4.656c-10.748,1.228-19.777,8.6-24.948,17.9-5.884,10.576-.381,19.236,4.373,28.83,3.562,7.174,1.462,16.129-3.157,22.676-3.624,5.122-8.979,10.036-8.525,16.3.283,3.808,2.715,7.063,5.061,10.073,1.572,2.015,3.329,4.152,5.81,4.729a10.588,10.588,0,0,0,3.783,0,71.252,71.252,0,0,0,8.316-1.683c2.653-.712,5.38-1.6,8.107-1.228,4.619.59,8.034,4.484,10.7,8.279s5.294,8.021,9.532,9.913c3.218,1.449,6.9,1.314,10.417,1.02,10.257-.848,21.128-3.231,28.179-10.724a48.67,48.67,0,0,0,4.287-5.479,13.206,13.206,0,0,0,1.9-3.329c1.228-3.575-.737-7.37-2.948-10.5s-4.914-6.142-5.233-9.9c-.295-2.948.884-5.81,1.228-8.734.749-5.577-1.425-11.24-4.914-15.674a48.864,48.864,0,0,0-12.8-10.81c-3.685-2.309-7.616-4.7-9.336-8.6a14.187,14.187,0,0,1-.946-4.914Z" transform="translate(-10.798 -57.349)" fill="#fc682d"/><path d="M353.917,164.935c.811,2.457,1.228,5.1,2.641,7.309,1.72,2.8,4.643,4.594,7.542,6.142a13.512,13.512,0,0,1,4.176,2.911,9.053,9.053,0,0,1,1.707,3.624,14.838,14.838,0,0,1,.307,5.307,13.364,13.364,0,0,0-.283,4.508c.43,1.879,1.965,3.255,3.3,4.643a17.345,17.345,0,0,1,5.147,9.409c.491,3.611-.97,7.628-4.164,9.4a12.764,12.764,0,0,1-3.685,1.228,42.808,42.808,0,0,1-6.252.762,14.274,14.274,0,0,1-4.459-.368,17.086,17.086,0,0,1-4.914-2.739L335.43,203.162a19.839,19.839,0,0,1-5.786-5.417,18.9,18.9,0,0,1-2.1-6.338c-1.069-5.393-1.892-11.166.2-16.251,1.621-3.98,4.84-7.063,7.96-10.024l7.923-7.493c2.3-2.174,4.1-3.132,6.142-.467A27.024,27.024,0,0,1,353.917,164.935Z" transform="translate(-5.653 -51.762)" fill="url(#b)"/><path d="M362.581,226.176c6.5,7.284,9.2,16.251,14.126,24.568a7.457,7.457,0,0,0,2.567,2.936c1.806.983,4.054.295,5.872-.663,14.63-7.812,15.969-30.157,30.316-38.473,3.329-1.916,7.112-2.924,10.417-4.914,1.228-.737,2.555-2.051,2.064-3.4a3.292,3.292,0,0,0-2.187-1.646,28.585,28.585,0,0,0-11.768-1.462c-1.781.16-4.262,0-4.459-1.806a8.269,8.269,0,0,0,0-1.56c-.393-1.3-2.567-.823-3.108.43s-.135,2.678-.184,4.041a11.78,11.78,0,0,1-2.383,5.859,138.12,138.12,0,0,1-10.146,13.709c-10.368,12.284-12.984-7.309-21.177-11.4a6.608,6.608,0,0,0-2.457-.5q-10.945-.749-21.914-.442C350.752,213.524,360.247,223.572,362.581,226.176Z" transform="translate(-0.694 -41.844)" fill="#f4dbbd"/><path d="M352.614,184.2s21.226,9.569,22.479,12.075,0,74,0,74H300.26l4.3-75.337,21.89-8.967Z" transform="translate(-11.633 -45.22)" fill="#5a0c9d"/><path d="M300.25,270.285H375.1s1.228-71.492,0-74.022S352.616,184.2,352.616,184.2l-26.152,1.757-21.89,8.967L302.5,231.1Z" transform="translate(-11.636 -45.22)" fill="url(#c)"/><path d="M361.18,194,379,216.7c-3.587,10.6-17.824,24.052-17.824,24.052Z" transform="translate(2.28 -42.982)" fill="#5a0c9d"/><path d="M295.89,139.74l11.141,13.7L295.89,165.9Z" transform="translate(67.57 31.903)" fill="url(#d)"/><path d="M347.2,176.254c-.725,3.857.393,6.793.553,10.331.221,5.245-5.331,13.438-7.542,18.229-.712,1.548-1.56,3.231-3.12,3.931a7.113,7.113,0,0,1-3.452.356,10.306,10.306,0,0,1-4.987-1.142c-2.015-1.228-2.887-3.685-3.587-5.97-1.142-3.685-4.041-9.52-3.341-13.316.221-1.228,1.327-2.457,1.634-3.783a22.958,22.958,0,0,0,.283-5.2C323.55,170.456,347.2,176.254,347.2,176.254Z" transform="translate(-6.757 -47.445)" fill="#f4dbbd"/><path d="M346.827,175.92s-3,16.067-12.542,15.134a12.1,12.1,0,0,1-11.055-9.348Z" transform="translate(-6.387 -47.111)" fill="#e0be99"/><path d="M349.159,180.335a23.634,23.634,0,0,1-2.973,7.26c-3.906,5.712-12.775,7.469-18.647,3.685a20.428,20.428,0,0,1-7.051-9.016,42.7,42.7,0,0,1-3.3-24.2,17.357,17.357,0,0,1,3.538-8.807c3.476-4.017,9.409-5.061,14.741-4.778,4.828.258,9.827,1.462,13.451,4.545a14.458,14.458,0,0,1,4.508,14.114C352.058,168.861,350.719,174.61,349.159,180.335Z" transform="translate(-7.884 -54.301)" fill="#f4dbbd"/><path d="M254.775,192.094a6.228,6.228,0,0,0-2.85-1.572,31.934,31.934,0,0,0-3.267-.246c-2.248-.258-4.606-1.45-6.633-.442a4.373,4.373,0,0,0-2.174,3.919,9.532,9.532,0,0,0,1.314,4.471c3.39,6.449,8.378,8.6,14.237,12.05,3.083,1.818,5.233,6.142,7.37,9.151l7.751,10.736c3.169,4.385,6.388,8.832,10.625,12.21a7.642,7.642,0,0,0,2.334,1.388,7.088,7.088,0,0,0,4.643-.467c6.142-2.371,11.608-6.867,16.915-10.748,2.457-1.818,5-3.685,7.469-5.515,1.069-.8,3.059-1.818,3.747-3.022a6.411,6.411,0,0,0,.651-2.457c.934-7.247-.356-14.63-.172-21.939-8.083,9.237-17.418,19-28.253,24.961a2.3,2.3,0,0,1-1.081.381,2.457,2.457,0,0,1-1.106-.368,74.686,74.686,0,0,1-23.241-19.31,69.07,69.07,0,0,1-6.142-10.368A10.92,10.92,0,0,0,254.775,192.094Z" transform="translate(-25.43 -44.024)" fill="#f4dbbd"/><path d="M347.313,161.369a2.727,2.727,0,0,1,3.132.405,2.666,2.666,0,0,1,.491,1.069,8.857,8.857,0,0,1-1.29,6.338,4.717,4.717,0,0,1-1.118,1.425,5.454,5.454,0,0,1-3.145.835,1.9,1.9,0,0,1-.749,0,1.486,1.486,0,0,1-.516-.393,4.176,4.176,0,0,1-.872-3.182C343.481,165.337,344.93,162.414,347.313,161.369Z" transform="translate(-1.825 -50.507)" fill="#f4dbbd"/><path d="M317.193,171a2.7,2.7,0,0,0,3.132-.393,2.653,2.653,0,0,0,.491-1.069,8.8,8.8,0,0,0-1.29-6.338,4.914,4.914,0,0,0-1.118-1.437,5.405,5.405,0,0,0-3.145-.835,1.708,1.708,0,0,0-.749.074,1.351,1.351,0,0,0-.516.393,4.176,4.176,0,0,0-.872,3.181C313.361,167.04,314.823,169.963,317.193,171Z" transform="translate(-8.704 -50.539)" fill="#f4dbbd"/><path d="M307.033,192.94l-17.6,22.185c3.575,10.6,15.5,24.052,15.5,24.052Z" transform="translate(-14.107 -43.224)" fill="#5a0c9d"/><path d="M348.843,166.231a4.914,4.914,0,0,1-1.462,1.99,1.732,1.732,0,0,1-2.051.111.626.626,0,0,1-.246-.319.933.933,0,0,1,.086-.626l.147-.393a1.116,1.116,0,0,1,.16-.319c.27-.356.823-.295,1.228-.516s.565-.786.786-1.228a1.044,1.044,0,0,1,.921-.639.884.884,0,0,1,.7.8,2.1,2.1,0,0,1-.27,1.142Z" transform="translate(-1.401 -49.767)" fill="#e0be99"/><path d="M314.489,165.591a4.84,4.84,0,0,0,1.462,1.99,1.757,1.757,0,0,0,2.064.123.663.663,0,0,0,.246-.332.983.983,0,0,0-.086-.614l-.147-.393a.97.97,0,0,0-.16-.319c-.27-.356-.823-.307-1.228-.528s-.565-.786-.786-1.228a1.069,1.069,0,0,0-.921-.639.848.848,0,0,0-.7.786,2.064,2.064,0,0,0,.258,1.155Z" transform="translate(-8.444 -49.913)" fill="#e0be99"/><path d="M344.867,184.2l4.987,2.309L347.4,209.578l-13.217,5.085S339.72,197.761,344.867,184.2Z" transform="translate(-3.887 -45.22)" fill="url(#e)"/><path d="M278.875,135.14l1.683,8.844-16.018,17.9,5.343-23.229Z" transform="translate(60.41 30.852)" fill="url(#f)"/><path d="M322.9,185.75l-4.987,2.3-2.85,21.177,13.168,5.085S323.069,193,322.9,185.75Z" transform="translate(-8.253 -44.866)" fill="url(#g)"/><path d="M253.5,135.14l-1.7,8.844,16.018,17.9-5.343-23.229Z" transform="translate(57.5 30.852)" fill="url(#h)"/><path d="M247.91,192.88l49.405-8.807,9.532-44.332v53.41Z" transform="translate(56.612 31.903)" fill="url(#i)"/><path d="M329.066,149.787c.614,3.685,1.228,7.788,4.054,10.368a14.446,14.446,0,0,0,5.491,2.874,52.821,52.821,0,0,0,14.274,2.592A21.853,21.853,0,0,0,331.8,139C323.341,138.768,328.169,144.271,329.066,149.787Z" transform="translate(-5.553 -55.544)" fill="#fc682d"/><rect width="267.824" height="14.593" transform="translate(129.023 220.803)" fill="#fff"/><path d="M368.819,323.8a14.188,14.188,0,0,0,6.388,23.732v3.243H204.462a16.928,16.928,0,0,1-16.08-11.634,16.743,16.743,0,0,1-.872-5.342,16.939,16.939,0,0,1,16.952-16.952H375.207v3.243A14.15,14.15,0,0,0,368.819,323.8Z" transform="translate(-37.383 -14.925)" fill="#5a0c9d"/><path d="M375.045,344.383v3.243H204.3a16.928,16.928,0,0,1-16.08-11.634c6.486,1.144,47.551,7.691,70.411-5.342l107.078,5.712A14.163,14.163,0,0,0,375.045,344.383Z" transform="translate(-37.221 -11.773)" fill="url(#j)"/><path d="M355.644,323.283a14.188,14.188,0,0,0,6.388,23.732v.479H259.805a14.188,14.188,0,1,1,0-28.363H362.031v.467A14.151,14.151,0,0,0,355.644,323.283Z" transform="translate(-24.208 -14.405)" fill="#fff"/><path d="M453.369,352.6a14.188,14.188,0,0,0,6.388,23.732v3.243H289.012a16.927,16.927,0,0,1-16.079-11.608,16.743,16.743,0,0,1-.872-5.344,16.939,16.939,0,0,1,16.952-16.952H459.757v3.243a14.151,14.151,0,0,0-6.388,3.685Z" transform="translate(-18.074 -8.343)" fill="#5a0c9d"/><path d="M459.595,373.179v3.243H288.849a16.927,16.927,0,0,1-16.079-11.608c6.486,1.142,47.551,7.69,70.411-5.344l107.078,5.712a14.164,14.164,0,0,0,9.336,8Z" transform="translate(-17.911 -5.191)" fill="url(#k)"/><path d="M440.194,352.088a14.188,14.188,0,0,0,6.388,23.732v.455H344.355a14.188,14.188,0,1,1,0-28.363H446.581v.467a14.152,14.152,0,0,0-6.388,3.71Z" transform="translate(-4.898 -7.832)" fill="#fff"/><path d="M183.427,127.758,162.95,78.77l23.069,49.5Z" transform="translate(37.209 17.979)" fill="#fff"/><path d="M393.257,273.232a16.485,16.485,0,0,0-4.68,3.169,6.817,6.817,0,0,0-2.076,5.1c.184,2.3,1.83,4.189,3.562,5.687,1.978,1.744,4.385,3.562,4.545,6.142,1.413-1.056,2.7-2.285,4.164-3.28,2.555-1.744,5.565-2.678,8.378-3.968s5.6-3.108,6.94-5.9a16.669,16.669,0,0,0,1.228-5.54,26.844,26.844,0,0,0,.16-6.142,8.906,8.906,0,0,0-2.555-5.454,16.449,16.449,0,0,0-7.6-3.218,8.144,8.144,0,0,0-7.149,5.122c-.577,1.536-.307,3.28-.872,4.815C396.586,271.561,394.854,272.421,393.257,273.232Z" transform="translate(8.062 -27.947)" fill="#fc682d"/><path d="M340.656,347.649a4.914,4.914,0,0,0-1.634.246,1.474,1.474,0,0,0-.983,1.228,1.634,1.634,0,0,0,.848,1.3c.454.295.983.467,1.437.774a8.412,8.412,0,0,0,1.228.848,3.685,3.685,0,0,0,2.371-.086,30.845,30.845,0,0,1,10.822-.676,4.323,4.323,0,0,0,1.056,0,3.157,3.157,0,0,0,2.162-2.174,15.244,15.244,0,0,0,.627-6.83,1.683,1.683,0,0,0-.184-.737,1.523,1.523,0,0,0-.54-.418c-3.427-1.7-5.307,1.7-7.825,3.354A19.408,19.408,0,0,1,340.656,347.649Z" transform="translate(-3.005 -9.486)" fill="#ffbbab"/><path d="M420.781,306.061s.86,12.824-10.6,16.694-32,.712-32,.712-8.267,15.834-16.718,23.339l-5.4,5.343a5.393,5.393,0,0,1-5.958-2.58s15.969-31.827,18.119-34.21a19.15,19.15,0,0,1,9.36-6.142l22.872-7.2Z" transform="translate(-0.251 -18.312)" fill="#473f47"/><path d="M280.08,200.238l12.272,26.054,22.676-.16-.184-1.965-20.858-.233L282.439,199.28Z" transform="translate(63.959 45.501)" fill="#473f47"/><path d="M394.536,258.508c-.418.712-1.29,1.13-1.572,1.9s.319,1.929.651,2.874c.479,1.314.332,2.788.786,4.115a1.5,1.5,0,0,0,.467.737,1.756,1.756,0,0,0,.7.283,10.589,10.589,0,0,0,2.985.172.922.922,0,0,1,.577.074.774.774,0,0,1,.258.5,15.87,15.87,0,0,1-.123,7.591c-.209.823-.442,1.818.16,2.457a1.658,1.658,0,0,0,.774.393c1.892.455,3.685-.946,4.987-2.457a22.11,22.11,0,0,0,2.924-4.3,4.1,4.1,0,0,0,.5-1.388,4.913,4.913,0,0,0-.258-1.867,31.283,31.283,0,0,1-.983-6.314c-.135-2.727.061-5.565-.995-8.1a4.189,4.189,0,0,0-1.646-2.125,5.344,5.344,0,0,0-2.948-.479c-1.978.074-4.164.344-5.515,1.806C395.887,254.811,395.064,257.624,394.536,258.508Z" transform="translate(9.522 -29.61)" fill="#ffbbab"/><path d="M408.518,268.1s-8.169,4.226-10.638,7.542-6.5,5.761-4.914,12.038-.344,15.858-.344,15.858,3.55,11.166,12.284,13.991,6.326,1.929,6.326,1.929,4.631-20.7,6.449-26.459S416.429,267.174,408.518,268.1Z" transform="translate(9.457 -26.066)" fill="#5a0c9d"/><path d="M396.374,254.787a5.651,5.651,0,0,0,1.806,3.5c.97.9,2.162,1.523,3.169,2.383a3.98,3.98,0,0,1,1.585,3.452,1.781,1.781,0,0,1,2.162.7,1.45,1.45,0,0,1-.233,1.5,1.781,1.781,0,0,1-1.425.59,5.65,5.65,0,0,1,2.543,2.064c.7,1.032,1.044,2.26,1.683,3.341a10.712,10.712,0,0,0,2.911,2.752,3.906,3.906,0,0,1,1.228,1.339,21.729,21.729,0,0,0,.848,2.457,35.624,35.624,0,0,0,2.334,2.948,10.711,10.711,0,0,1,1.855,5.552,9.426,9.426,0,0,1,0-1.769q.307-.516.59-1.069a9.829,9.829,0,0,0,.725-2.015,20.341,20.341,0,0,0,.135-4.815c0-3.439,3.243-9.913.639-12.861a25.436,25.436,0,0,0-3.3-2.346c-2.3-1.9-2.616-5.257-4.066-7.862a9.925,9.925,0,0,0-6.031-4.717C402.136,248.94,395.92,250.009,396.374,254.787Z" transform="translate(10.312 -30.287)" fill="#fc682d"/><path d="M404.154,277.432s-5.159,13.954-6.142,14.974,9.938,7.186,9.938,7.186,7.137-13.574,6.805-19.445S408.17,271.892,404.154,277.432Z" transform="translate(10.677 -24.642)" fill="#5a0c9d"/><path d="M414.2,294.368s-.381,4.5-5.9,4.41l-24.506-.344c-1.671-.86-3.955-.995-5.2-2.457-.6-.663-.909-1.548-1.474-2.236a5.037,5.037,0,0,0-2.985-1.6,14.644,14.644,0,0,0-3.439-.086,1.425,1.425,0,0,1,0-1.867,3.391,3.391,0,0,1,1.781-.97,10.982,10.982,0,0,1,8.3,1.228,9.827,9.827,0,0,0,2.346,1.228,6.326,6.326,0,0,0,1.867.1c7.063-.332,14.04-1.83,21.1-2.15a12.185,12.185,0,0,1,4.914.516,5.773,5.773,0,0,1,3.181,4.226Z" transform="translate(4.375 -21.31)" fill="#ffbbab"/><rect width="3.476" height="63.606" transform="translate(336.3 274.557)" fill="#fff"/><rect width="3.476" height="63.606" transform="translate(375.51 274.557)" fill="#fff"/><rect width="48.681" height="5.528" transform="translate(332.222 271.793)" fill="#5a0c9d"/><rect width="48.681" height="5.528" transform="translate(332.222 271.793)" fill="url(#l)"/><rect width="34.382" height="8.218" rx="1.1" transform="translate(388.482 303.682)" fill="#473f47"/><path d="M323.369,253.92h-5.81l-2.9,26.889h5.81Z" transform="translate(71.856 57.98)" fill="#473f47"/><path d="M347.605,280.809,343.76,253.92h-5.81l4.828,26.889Z" transform="translate(77.175 57.98)" fill="#473f47"/><path d="M355.936,210.52h-5.208l-11.768,45.3h5.208Z" transform="translate(77.406 48.068)" fill="#473f47"/><rect width="34.382" height="8.218" rx="1.1" transform="translate(161.121 311.9) rotate(180)" fill="#473f47"/><path d="M125.68,253.92h5.81l2.9,26.889h-5.81Z" transform="translate(28.697 57.98)" fill="#473f47"/><path d="M101.62,280.809l3.845-26.889h5.81l-4.828,26.889Z" transform="translate(23.202 57.98)" fill="#473f47"/><path d="M94.65,210.52h5.208l11.768,45.3h-5.208Z" transform="translate(21.61 48.068)" fill="#473f47"/><path d="M321.429,352.608a14.188,14.188,0,0,0,6.388,23.732v3.243H157.072a16.927,16.927,0,0,1-16.08-11.608,16.743,16.743,0,0,1-.872-5.344,16.939,16.939,0,0,1,16.952-16.952H327.817v3.243a14.152,14.152,0,0,0-6.388,3.685Z" transform="translate(-48.206 -8.341)" fill="#5a0c9d"/><path d="M327.655,373.189v3.243H156.91a16.927,16.927,0,0,1-16.08-11.608c6.486,1.142,47.551,7.69,70.411-5.344l107.078,5.712a14.163,14.163,0,0,0,9.336,8Z" transform="translate(-48.044 -5.189)" fill="url(#m)"/><path d="M308.254,352.1a14.188,14.188,0,0,0,6.388,23.732v.442H212.415a14.188,14.188,0,1,1,0-28.363H314.641v.467a14.152,14.152,0,0,0-6.388,3.722Z" transform="translate(-35.031 -7.832)" fill="#fff"/><path d="M118.22,181.82l11.375,4.766-11.375,4.459Z" transform="translate(26.993 41.513)" fill="#5a0c9d"/><rect width="226.182" height="3.034" transform="translate(161.194 226.576)" fill="#5a0c9d"/><path d="M171.7,306.339s-.86,12.824,10.6,16.694c8.181,2.764,17.566,2.162,26.042,1.413,1.363-.123,3.808-.811,5.012.1,1.7,1.228.848,4.656.8,6.51-.111,4.029-.209,8.046-.319,12.075,0,1.855,0,3.759-.147,5.6s-.6,4-.737,6.044a.614.614,0,0,0,.111.491.663.663,0,0,0,.5.135l15.011-.651a.639.639,0,0,0,.454-.123c.221-.209.074-.577-.1-.823a11.608,11.608,0,0,0-6.142-4.091,5.453,5.453,0,0,1-1.621-.7c-1.56-1.228-.27-3.869.086-5.356L222.8,337.2l3.046-12.7c.909-3.759,1.13-6.621-1.769-9.237a24.469,24.469,0,0,0-9.237-5.749l-22.86-7.2Z" transform="translate(-40.997 -18.246)" fill="#473f47"/><path d="M186.437,200.238l-12.272,26.054-22.676-.16.184-1.965,20.846-.233,11.547-24.654Z" transform="translate(34.591 45.501)" fill="#473f47"/><path d="M198.976,258.508c.43.712,1.3,1.13,1.585,1.9s-.319,1.929-.663,2.874c-.467,1.314-.319,2.788-.774,4.115a1.5,1.5,0,0,1-.467.737,1.831,1.831,0,0,1-.7.283,10.589,10.589,0,0,1-2.985.172.922.922,0,0,0-.577.074.774.774,0,0,0-.258.5,15.871,15.871,0,0,0,.111,7.591c.221.823.454,1.818-.147,2.457a1.658,1.658,0,0,1-.774.393c-1.892.455-3.685-.946-4.987-2.457a22.111,22.111,0,0,1-2.924-4.3,4.1,4.1,0,0,1-.5-1.388,4.914,4.914,0,0,1,.258-1.867,31.274,31.274,0,0,0,.97-6.314c.147-2.727,0-5.565.995-8.1a4.213,4.213,0,0,1,1.658-2.125,5.307,5.307,0,0,1,2.936-.479c1.99.074,4.164.344,5.515,1.806C197.637,254.811,198.46,257.624,198.976,258.508Z" transform="translate(-37.978 -29.61)" fill="#ffbbab"/><path d="M188.335,268.142h.172c3.611.9,8.869,4.189,10.048,7.849,1.486,4.594,2.457,10.773,1.388,15.527-.725,3.231-2.457,6.142-3.427,9.311-.823,2.616-1.167,5.393-2.248,7.911a14.741,14.741,0,0,1-15.76,8.378,10.367,10.367,0,0,1-4.631-2.039,10.908,10.908,0,0,1-3.427-9.029,32.528,32.528,0,0,1,2.592-9.655l5.626-14.679C180.031,278.2,183.335,267.147,188.335,268.142Z" transform="translate(-41.291 -26.063)" fill="#5a0c9d"/><path d="M183.148,300.785a4.667,4.667,0,0,1,.614,1.72,4.276,4.276,0,0,1-.16,1.327,26.5,26.5,0,0,0-.725,7.3,1.707,1.707,0,0,0,.381,1.228,1.843,1.843,0,0,0,1.093.344,8.132,8.132,0,0,0,4.176-.418,7.37,7.37,0,0,0,3.059-3.869,75.47,75.47,0,0,0,4.09-13.795,5.8,5.8,0,0,0,.221-2.334,4.582,4.582,0,0,0-2.113-2.8c-.983-.676-2.1-1.167-3.046-1.9-1.867-1.425-3.243-4.017-5.786-4.348a3.783,3.783,0,0,0-3.931,2.8C179.352,290.442,181.146,296.744,183.148,300.785Z" transform="translate(-39.016 -22.605)" fill="url(#n)"/><path d="M189.581,277.432s5.159,13.954,6.142,14.974-9.925,7.186-9.925,7.186-7.149-13.574-6.805-19.445S185.552,271.892,189.581,277.432Z" transform="translate(-39.331 -24.642)" fill="#5a0c9d"/><path d="M184.55,294.368s.381,4.5,5.884,4.41L215,298.434c1.658-.86,3.943-.995,5.2-2.457.59-.663.9-1.548,1.474-2.236a5.036,5.036,0,0,1,2.985-1.6,14.638,14.638,0,0,1,3.439-.086,1.437,1.437,0,0,0,0-1.867,3.44,3.44,0,0,0-1.781-.97,10.982,10.982,0,0,0-8.3,1.228,9.829,9.829,0,0,1-2.346,1.228,6.326,6.326,0,0,1-1.867.1c-7.063-.332-14.04-1.83-21.1-2.15a12.284,12.284,0,0,0-4.913.516,5.749,5.749,0,0,0-3.231,4.226Z" transform="translate(-38.059 -21.31)" fill="#ffbbab"/><rect width="3.476" height="63.606" transform="translate(178.895 274.557)" fill="#fff"/><rect width="3.476" height="63.606" transform="translate(218.118 274.557)" fill="#fff"/><rect width="48.681" height="5.528" transform="translate(174.817 271.793)" fill="#5a0c9d"/><rect width="48.681" height="5.528" transform="translate(174.817 271.793)" fill="url(#o)"/><path d="M198.655,248.913a6.916,6.916,0,0,0-5.393-3.132,5.171,5.171,0,0,0-4.09,1.155c-.442.442-.774.995-1.228,1.425-1.314,1.228-3.341,1.081-4.914,1.83a6.388,6.388,0,0,0-3.059,3.489,15.331,15.331,0,0,0-.884,4.656,12.6,12.6,0,0,0,.233,4.348,7.125,7.125,0,0,0,4.324,4.631,3.009,3.009,0,0,1,1.314.688c.295.332.393.811.676,1.155.7.86,2.1.54,2.973-.135a11.928,11.928,0,0,1,2.567-2.051l-2.457-3.329a1.83,1.83,0,0,1-.5-1.228,1.228,1.228,0,0,1,1.228-.9,2.555,2.555,0,0,1,1.486.651c.356.295.9.627,1.228.283a.639.639,0,0,0,.172-.393c.27-1.646-1.228-3.28-.786-4.914a.712.712,0,0,1,.233-.381.811.811,0,0,1,.565-.074,10.9,10.9,0,0,0,2.96.074C198.409,256.185,200.2,251.579,198.655,248.913Z" transform="translate(-39.328 -31.169)" fill="#473f47"/><path d="M192.125,277.693c0,.6,0,1.363-.626,1.511a1.228,1.228,0,0,1-.725-.1,11.252,11.252,0,0,1-2.653-1.351,80.189,80.189,0,0,0,2.076,15.085,2,2,0,0,0,.319.786,1.781,1.781,0,0,0,1.339.491,9.263,9.263,0,0,0,3.562-.516c-3.046-5.061-3.182-11.485-1.462-17.124a4.226,4.226,0,0,0,.27-2.592,4.914,4.914,0,0,0-3.218-2.4C190.638,273.345,191.977,275.8,192.125,277.693Z" transform="translate(-37.244 -25.284)" fill="url(#p)"/></g></svg>