<svg xmlns="http://www.w3.org/2000/svg" xmlns:xlink="http://www.w3.org/1999/xlink" width="1366" height="768.001" viewBox="0 0 1366 768.001"><defs><linearGradient id="a" x2="1" y2="1" gradientUnits="objectBoundingBox"><stop offset="0" stop-color="#5a0c9d"/><stop offset="1" stop-color="#9326f0"/></linearGradient></defs><path d="M1366,768H531.756c-74.6-59.355-194.657-92.043-338.042-92.043a208.726,208.726,0,0,1-29.532-2.061A190.046,190.046,0,0,1,136.5,667.8a187.951,187.951,0,0,1-25.995-9.995,201.873,201.873,0,0,1-24.475-13.761C55.7,624.138,27.557,594.684,0,554V0H231C340.335,132.9,502.74,144.024,659.714,144.024c21.555,0,43.629-.237,64.975-.467h.148c21.407-.23,43.543-.468,65.377-.468,36.841,0,66.724.694,94.045,2.184a877.316,877.316,0,0,1,91.659,9.4c15.338,2.461,30.276,5.4,44.4,8.737,14.893,3.518,29.413,7.6,43.158,12.141,14.391,4.751,28.422,10.161,41.7,16.079a405.2,405.2,0,0,1,40.034,20.55c11.927,7,23.526,14.469,34.474,22.2,10.591,7.48,20.865,15.411,30.536,23.573,9.336,7.88,18.369,16.193,26.848,24.709,8.167,8.2,16.043,16.819,23.41,25.609,7.079,8.446,13.882,17.285,20.221,26.272,6.073,8.61,11.888,17.593,17.282,26.7,5.15,8.694,10.06,17.741,14.593,26.89,4.309,8.7,8.4,17.729,12.154,26.845,29.379,71.315,35.4,139.594,39.383,184.776.643,7.294,1.25,14.182,1.889,20.266V768Z" fill="url(#a)"/></svg>