<svg xmlns="http://www.w3.org/2000/svg" width="188.641" height="44.181" viewBox="0 0 188.641 44.181"><g transform="translate(-98 1454.1)"><path d="M2145.353-1453.485c-1.023.337-4.665,1.555-8.092,2.7s-7.389,2.479-8.809,2.955-2.673.912-2.78.968a.9.9,0,0,0-.361,1.392,1.31,1.31,0,0,0,.365.254c.131.063,1.277.468,2.542.9s2.3.789,2.312.793a3.044,3.044,0,0,1-.246.409,9.478,9.478,0,0,0-1.21,2.876,7.068,7.068,0,0,0-.23,1.281.329.329,0,0,0,.171-.02,2.55,2.55,0,0,1,2.265.567l.242.226.024-.111c.012-.059.095-.539.182-1.063a5.884,5.884,0,0,1,.639-2.388,4.132,4.132,0,0,1,.976-1,41.275,41.275,0,0,1,4.157-2.082c1.813-.8,4.058-1.674,6.5-2.535,1.388-.488,3.435-1.182,3.59-1.218.4-.091.738.147.912.646a.74.74,0,0,1-.024.69,1.17,1.17,0,0,1-.567.524c-.1.047-1.138.44-2.32.873-3.614,1.321-4.5,1.666-9.491,3.681-.385.155-.448.194-.448.27,0,.107-.476-.063,4.423,1.559,2.094.694,4.363,1.452,5.037,1.682s1.416.46,1.646.5a5.282,5.282,0,0,0,1.884,0c.234-.048,1.511-.46,3.094-1,1.484-.508,6.061-2.039,10.174-3.411s7.548-2.523,7.635-2.558a1.254,1.254,0,0,0,.631-.543c.238-.472.028-.924-.575-1.241-.278-.147-5.549-1.916-16.6-5.581l-4.8-1.591-.5-.016-.5-.016Z" transform="translate(-1946.706 0)" fill="#5a0c9d"/><path d="M1058.682-1277.818c-.1,0-.758.04-1.468.071a162.383,162.383,0,0,0-16.242,1.908c-9.761,1.626-18.471,4.089-23.778,6.727l-.694.345h.952a23.958,23.958,0,0,1,5.866.722l.627.159.821-.3c7.782-2.812,19.011-5.267,30.843-6.743,1.571-.2,4.53-.535,4.692-.539a2.863,2.863,0,0,0-.571-.234c-.845-.305-1.043-.432-1.182-.765a.682.682,0,0,1,0-.551,1.328,1.328,0,0,1,.924-.726.811.811,0,0,0,.206-.087A8.631,8.631,0,0,0,1058.682-1277.818Z" transform="translate(-882.069 -169.269)" fill="#302d33"/><path d="M3288.075-1258.921a.384.384,0,0,1-.043.658l-.131.091.171.02c.1.012.857.059,1.7.1,23.8,1.277,38.363,2.781,51.329,5.291.619.123,1.19.23,1.265.246s.131.016.119,0c-.043-.047-4.2-.857-6.445-1.253-9.424-1.666-20.1-2.967-34.131-4.149-4.054-.341-13.541-1.091-13.807-1.091h-.127Z" transform="translate(-3063.377 -187.362)" fill="#302d33"/><path d="M98-1114.511v15.489h4.244v-10.745l.29-.194c.591-.4,3.383-1.987,5.244-2.979,1.067-.571,3.867-1.975,5.017-2.515a91.184,91.184,0,0,1,10.551-4.2,45.282,45.282,0,0,1,10.075-2.451c.623-.059,3.356-.059,4.066,0a9.217,9.217,0,0,1,3.514.916,10.172,10.172,0,0,1,3.693,3.11,9.513,9.513,0,0,1,1.928,6.422,9.535,9.535,0,0,1-2.126,5.541,11.717,11.717,0,0,1-2.507,2.273,9.995,9.995,0,0,1-9.952.381,9.582,9.582,0,0,1-1.428-.948,16.551,16.551,0,0,1-1.781-1.8,9.461,9.461,0,0,1-1.94-4.549,15.243,15.243,0,0,1,0-2.947c.42-2.725,1.483-4.307,4.478-6.636a4.851,4.851,0,0,0,.571-.48c-.067-.071-3.97.96-6.271,1.658a.531.531,0,0,0-.246.226c-.067.1-.29.428-.488.722a11.919,11.919,0,0,0-1.126,10.237,12.825,12.825,0,0,0,3.264,5.307,12.89,12.89,0,0,0,7.877,3.915,19.436,19.436,0,0,0,2.856.059,12.756,12.756,0,0,0,4.938-1.341,14.184,14.184,0,0,0,4.8-3.982,12.774,12.774,0,0,0,2.642-6.382,21.935,21.935,0,0,0,0-3.609,13,13,0,0,0-2.975-6.782,13.055,13.055,0,0,0-4.133-3.439c-2.416-1.257-4.871-1.69-8.952-1.563a11.527,11.527,0,0,0-2.253.182,86.121,86.121,0,0,0-23.437,7.794c-2.031,1.016-4.01,2.114-5.549,3.082-.294.186-.555.345-.587.357-.048.016-.056-1.1-.056-7.8V-1130H98Z" transform="translate(0 -311.245)" fill="#302d33"/><path d="M508-1125.673c0,3.447.012,4.323.052,4.307.528-.238,1.372-.571,2.158-.861.539-.2,1.222-.452,1.511-.563l.524-.2V-1130H508Z" transform="translate(-393.738 -311.245)" fill="#302d33"/><path d="M4665.5-1094.78a.208.208,0,0,0,.1,0c.023-.012,0-.02-.051-.02S4665.471-1094.792,4665.5-1094.78Z" transform="translate(-4386.322 -345.049)" fill="#302d33"/><path d="M4671.257-1093.748a1.724,1.724,0,0,0,.277.052c.044,0-.007-.024-.119-.052a1.629,1.629,0,0,0-.278-.052C4671.094-1093.8,4671.15-1093.776,4671.257-1093.748Z" transform="translate(-4391.736 -346.009)" fill="#302d33"/><path d="M4684.5-1090.78a.206.206,0,0,0,.1,0c.024-.012,0-.02-.051-.02S4684.47-1090.792,4684.5-1090.78Z" transform="translate(-4404.568 -348.89)" fill="#302d33"/><path d="M4689.5-1089.78a.206.206,0,0,0,.1,0c.024-.012,0-.02-.051-.02S4689.471-1089.792,4689.5-1089.78Z" transform="translate(-4409.37 -349.85)" fill="#302d33"/><path d="M4694.366-1088.9a.08.08,0,0,0,.075,0c.016-.012-.008-.024-.052-.02S4694.334-1088.907,4694.366-1088.9Z" transform="translate(-4414.04 -350.696)" fill="#302d33"/><path d="M4698.5-1087.78a.206.206,0,0,0,.1,0c.024-.012,0-.02-.051-.02S4698.471-1087.792,4698.5-1087.78Z" transform="translate(-4418.013 -351.771)" fill="#302d33"/><path d="M4703.366-1086.9a.081.081,0,0,0,.076,0c.016-.012-.008-.024-.052-.02S4703.334-1086.907,4703.366-1086.9Z" transform="translate(-4422.682 -352.616)" fill="#302d33"/><path d="M4708.366-1085.9a.08.08,0,0,0,.075,0c.016-.012-.008-.024-.052-.02S4708.334-1085.907,4708.366-1085.9Z" transform="translate(-4427.483 -353.577)" fill="#302d33"/><path d="M4713.366-1084.9a.08.08,0,0,0,.075,0c.016-.012-.008-.024-.052-.02S4713.334-1084.907,4713.366-1084.9Z" transform="translate(-4432.285 -354.537)" fill="#302d33"/><path d="M4717.366-1083.9a.081.081,0,0,0,.075,0c.016-.012-.008-.024-.052-.02S4717.334-1083.907,4717.366-1083.9Z" transform="translate(-4436.127 -355.498)" fill="#302d33"/><path d="M4722.366-1082.9a.08.08,0,0,0,.075,0c.016-.012-.008-.024-.052-.02S4722.334-1082.907,4722.366-1082.9Z" transform="translate(-4440.929 -356.458)" fill="#302d33"/><path d="M4726.366-1081.9a.08.08,0,0,0,.075,0c.016-.012-.008-.024-.052-.02S4726.334-1081.907,4726.366-1081.9Z" transform="translate(-4444.771 -357.418)" fill="#302d33"/><path d="M4735.366-1079.9a.08.08,0,0,0,.075,0c.016-.012-.008-.024-.052-.02S4735.334-1079.907,4735.366-1079.9Z" transform="translate(-4453.414 -359.339)" fill="#302d33"/><path d="M4744.366-1077.895a.08.08,0,0,0,.075,0c.016-.012-.008-.024-.052-.02S4744.334-1077.907,4744.366-1077.895Z" transform="translate(-4462.056 -361.26)" fill="#302d33"/><path d="M2174.272-1024.73a2.436,2.436,0,0,0-2.07,2.578,2.44,2.44,0,0,0,1.646,2.189,2.914,2.914,0,0,0,1.4.071,2.518,2.518,0,0,0,1.638-1.273,2.136,2.136,0,0,0,.242-1.091,2.364,2.364,0,0,0-1.662-2.38A3.933,3.933,0,0,0,2174.272-1024.73Z" transform="translate(-1991.927 -412.327)" fill="#302d33"/><path d="M2967.226-1012.791a12.835,12.835,0,0,0-7.48,2.737,14.381,14.381,0,0,0-1.821,1.821,13.835,13.835,0,0,0-1.959,3.478,15.9,15.9,0,0,0-.635,8.143,12.292,12.292,0,0,0,11.336,10.313,24,24,0,0,0,2.824,0,14.384,14.384,0,0,0,3.407-.73,16.087,16.087,0,0,0,2.638-1.325,11.861,11.861,0,0,0,4.355-5.2,14.288,14.288,0,0,0,1.186-5.513,14.4,14.4,0,0,0-1.372-6.8,11.585,11.585,0,0,0-2.487-3.471,12.446,12.446,0,0,0-7.135-3.352c-.444-.056-1.872-.143-2.142-.131C2967.876-1012.827,2967.555-1012.811,2967.226-1012.791Zm2,3.689a8.266,8.266,0,0,1,4.47,1.832c1.991,1.674,3.066,4.407,3.066,7.774a10.568,10.568,0,0,1-2,6.632,8.99,8.99,0,0,1-1.408,1.365,8.34,8.34,0,0,1-4.153,1.551,14.672,14.672,0,0,1-2.808-.075,7.943,7.943,0,0,1-4.319-2.106,9.607,9.607,0,0,1-2.677-6.679,12.851,12.851,0,0,1,.615-4.791,10.966,10.966,0,0,1,.952-1.948C2962.7-1008.194,2965.623-1009.455,2969.229-1009.1Z" transform="translate(-2743.749 -423.77)" fill="#302d33"/><path d="M4427.879-1012.445a8.754,8.754,0,0,0-4.438,1.432,6.878,6.878,0,0,0-2.777,3.625,6.623,6.623,0,0,0-.361,2.3,6.813,6.813,0,0,0,.7,3.276,5.834,5.834,0,0,0,2.1,2.316,19.212,19.212,0,0,0,5.025,2,10.062,10.062,0,0,1,2.845,1.186,4.412,4.412,0,0,1,1.09,1.059,4.022,4.022,0,0,1,.016,3.649,4.285,4.285,0,0,1-3.832,2.2,7.317,7.317,0,0,1-2.812-.321,10.816,10.816,0,0,1-2.951-1.646c-.523-.385-.714-.468-1.067-.468a.992.992,0,0,0-.813.321c-.08.083-.425.615-.773,1.182l-.627,1.031.381.377a11.69,11.69,0,0,0,6.632,2.983,18.123,18.123,0,0,0,2.935-.02,8.205,8.205,0,0,0,6.073-3.677,8.594,8.594,0,0,0,1.189-3.538,11.824,11.824,0,0,0-.079-2.542,5.652,5.652,0,0,0-1.483-2.832c-1.083-1.13-2.4-1.789-5.978-2.967a16.938,16.938,0,0,1-2.447-.928,4.907,4.907,0,0,1-1.793-1.468,3.228,3.228,0,0,1-.047-3,3.754,3.754,0,0,1,2.725-1.94,7.7,7.7,0,0,1,2.7,0,9.023,9.023,0,0,1,2.971,1.345,2.06,2.06,0,0,0,.963.42.983.983,0,0,0,.678-.262c.167-.147.27-.325.758-1.273a4.458,4.458,0,0,0,.527-1.162,7.447,7.447,0,0,0-1.17-.952,10.245,10.245,0,0,0-3.6-1.479A13.783,13.783,0,0,0,4427.879-1012.445Z" transform="translate(-4149.805 -424.119)" fill="#302d33"/><path d="M1549-991.99v13.01h4.244v-10.511h1.142c1.837,0,2.162.06,2.59.472.178.167,1.027,1.365,3.367,4.744,1.717,2.487,3.177,4.589,3.237,4.672a1.747,1.747,0,0,0,.773.516,8.712,8.712,0,0,0,2.372.1,9.543,9.543,0,0,0,2.078-.04c-.02-.028-1.626-2.293-3.562-5.029s-3.594-5.069-3.677-5.184a5.447,5.447,0,0,0-.9-.869.889.889,0,0,1-.151-.115c.008,0,.234-.083.508-.178a7.443,7.443,0,0,0,5.394-6.267,13.258,13.258,0,0,0,0-2.023,6.887,6.887,0,0,0-1.055-3,7.537,7.537,0,0,0-1.587-1.591,11.132,11.132,0,0,0-5.569-1.678c-.313-.024-2.34-.04-4.867-.04H1549Zm9.174-9.626c1.92.286,3.117,1.011,3.744,2.269a5.17,5.17,0,0,1,.182,3.609c-.587,1.8-2.213,2.919-4.589,3.149-.242.024-1.293.044-2.352.044h-1.916v-9.17l2.253.02A25.558,25.558,0,0,1,1558.174-1001.617Z" transform="translate(-1393.448 -431.287)" fill="#302d33"/><path d="M2379.6-1003.294v1.706l6.8.008,6.8.012-7,9.852c-3.851,5.422-7.044,9.932-7.1,10.019-.242.417-.266.551-.286,1.674l-.016,1.043h19.681v-3.411h-7.044c-6.477,0-7.044,0-7.021-.063.012-.036,3.137-4.45,6.945-9.813s6.973-9.833,7.036-9.94a3.344,3.344,0,0,0,.23-.512,3.379,3.379,0,0,0,.123-1.3l.016-.98H2379.6Z" transform="translate(-2190.335 -431.287)" fill="#302d33"/><path d="M3750-992.086v13.01h3.729V-988c0-6-.016-9.115-.044-9.5a5.66,5.66,0,0,1-.028-.587c.008-.008,3.252,4.145,7.211,9.23s7.266,9.305,7.357,9.381a1.6,1.6,0,0,0,.813.365c.143.024.761.044,1.38.044h1.118V-1005.1h-3.688v8.809c0,5.958.016,9.028.043,9.484.024.369.036.678.028.686s-3.217-4.105-7.132-9.135-7.207-9.246-7.31-9.373a1.226,1.226,0,0,0-.417-.341l-.226-.111-1.416-.012-1.42-.012Z" transform="translate(-3507.148 -431.191)" fill="#302d33"/><path d="M2036.077-859.942c0,.29-.1,1.686-.163,2.344-.5,5.025-1.706,8.131-4.066,10.436a9.84,9.84,0,0,1-2.209,1.662c-.151.079-.258.159-.25.186.024.055,3.855,5.478,3.935,5.561.044.048.111.02.448-.171a9.358,9.358,0,0,0,3.963-5.232,27.594,27.594,0,0,0,1.238-8.5c0-1.162-.21-6.314-.262-6.362-.012-.012-.067,0-.127.024l-.353.147a2.356,2.356,0,0,1-1.924-.052C2036.117-859.985,2036.077-859.993,2036.077-859.942Z" transform="translate(-1854.783 -570.519)" fill="#5a0c9d"/><path d="M510.975-799.412c-1.194.5-2.558,1.083-2.824,1.218l-.151.075v16.1h4.244v-8.944c0-7.132-.012-8.944-.048-8.94S511.617-799.682,510.975-799.412Z" transform="translate(-393.738 -628.252)" fill="#302d33"/></g></svg>